<?xml version="1.0" encoding="UTF-8"?>
<svg width="1024" height="1024" viewBox="0 0 350 350" xmlns="http://www.w3.org/2000/svg" version="1.1">
  <rect x="0" y="0" width="350" height="350" fill="#041D3C"/>
  <g id="VelocityNvim_Logo_apple-touch-icon-template" transform="translate(10,285) scale(1,-1)">
    <path id="Part__Part2DObjectPython_w0000" d="M 60.0 0.0 L 80.0 40.0 L 95.0 40.0 L 80.0 10.0 L 260.0 10.0 L 245.0 40.0 L 260.0 40.0 L 280.0 0.0 L 60.0 0.0" stroke="none" stroke-width="0" fill="#FF00FF"/>
    <path id="Part__Part2DObjectPython_w0001" d="M 0.0 120.0 L 35.0 50.0 L 40.0 50.0 L 75.0 120.0 L 65.0 120.0 L 40.0 70.0 L 15.0 120.0 L 0.0 120.0" stroke="none" stroke-width="0" fill="#8080FF"/>
    <path id="Part__Part2DObjectPython_w0002" d="M 45.0 50.0 L 80.0 120.0 L 115.0 120.0 L 110.0 110.0 L 90.0 110.0 L 80.0 90.0 L 100.0 90.0 L 95.0 80.0 L 75.0 80.0 L 65.0 60.0 L 85.0 60.0 L 80.0 50.0 L 45.0 50.0" stroke="none" stroke-width="0" fill="#8080FF"/>
    <path id="Part__Part2DObjectPython_w0003" d="M 85.0 50.0 L 120.0 120.0 L 135.0 120.0 L 105.0 60.0 L 130.0 60.0 L 135.0 50.0 L 85.0 50.0" stroke="none" stroke-width="0" fill="#8080FF"/>
    <path id="Part__Part2DObjectPython_w0004" d="M 140.0 50.0 L 135.0 60.0 L 135.0 110.0 L 140.0 120.0 L 170.0 120.0 L 170.0 50.0 L 140.0 50.0 M 145.0 110.0 L 145.0 60.0 L 160.0 60.0 L 160.0 110.0 L 145.0 110.0" stroke="none" stroke-width="0" fill="#8080FF"/>
    <path id="Part__Part2DObjectPython_w0006" d="M 175.0 120.0 L 175.0 50.0 L 235.0 50.0 L 230.0 60.0 L 185.0 60.0 L 185.0 110.0 L 205.0 110.0 L 200.0 120.0 L 175.0 120.0" stroke="none" stroke-width="0" fill="#8080FF"/>
    <path id="Part__Part2DObjectPython_w0007" d="M 125.0 130.0 L 170.0 220.0 L 215.0 130.0 L 200.0 130.0 L 170.0 190.0 L 140.0 130.0 L 125.0 130.0" stroke="none" stroke-width="0" fill="#00FFFF"/>
    <path id="Part__Part2DObjectPython_w0008" d="M 205.0 120.0 L 240.0 50.0 L 255.0 50.0 L 220.0 120.0 L 205.0 120.0" stroke="none" stroke-width="0" fill="#8080FF"/>
    <path id="Part__Part2DObjectPython_w0009" d="M 225.0 120.0 L 230.0 110.0 L 245.0 110.0 L 275.0 50.0 L 290.0 50.0 L 260.0 110.0 L 275.0 110.0 L 270.0 120.0 L 225.0 120.0" stroke="none" stroke-width="0" fill="#8080FF"/>
    <path id="Part__Part2DObjectPython_w0010" d="M 275.0 120.0 L 295.0 80.0 L 290.0 70.0 L 290.0 60.0 L 295.0 50.0 L 330.0 120.0 L 315.0 120.0 L 300.0 90.0 L 285.0 120.0 L 275.0 120.0" stroke="none" stroke-width="0" fill="#8080FF"/>
  </g>
</svg>
