<?xml version="1.0" encoding="UTF-8" standalone="no"?>
<svg
  width="1024"
  height="1024"
  viewBox="0 0 350 350"
  version="1.1"
  xmlns="http://www.w3.org/2000/svg">

  <!-- Hintergrund -->
  <rect
    x="0"
    y="0"
    width="350"
    height="350"
    fill="#041D3C" />

  <!-- Logo (90 %, zentriert, richtige Höhe) -->
  <g
    id="VelocityAccents_Menue_Bar_Logo"
    transform="translate(180,240) scale(0.9,-0.9) translate(-170,0)">
    <path d="M60 0 L80 40 L95 40 L80 10 L260 10 L245 40 L260 40 L280 0 Z" fill="#00FFFF"/>
    <path d="M0 120 L35 50 L40 50 L75 120 L65 120 L40 70 L15 120 Z" fill="#00FFFF"/>
    <path d="M45 50 L80 120 L115 120 L110 110 L90 110 L80 90 L100 90 L95 80 L75 80 L65 60 L85 60 L80 50 Z" fill="#00FFFF"/>
    <path d="M85 50 L120 120 L135 120 L105 60 L130 60 L135 50 Z" fill="#00FFFF"/>
    <path d="M140 50 L135 60 L135 110 L140 120 L170 120 L170 50 Z M145 110 L145 60 L160 60 L160 110 Z" fill="#00FFFF"/>
    <path d="M175 120 L175 50 L235 50 L230 60 L185 60 L185 110 L205 110 L200 120 Z" fill="#00FFFF"/>
    <path d="M125 130 L170 220 L215 130 L200 130 L170 190 L140 130 Z" fill="#00FFFF"/>
    <path d="M205 120 L240 50 L255 50 L220 120 Z" fill="#00FFFF"/>
    <path d="M225 120 L230 110 L245 110 L275 50 L290 50 L260 110 L275 110 L270 120 Z" fill="#00FFFF"/>
    <path d="M275 120 L295 80 L290 70 L290 60 L295 50 L330 120 L315 120 L300 90 L285 120 Z" fill="#00FFFF"/>
  </g>

  <!-- Text -->
  <text
    x="175"
    y="300"
    font-family="Arial Black, sans-serif"
    font-size="55"
    text-anchor="middle"
    letter-spacing="-4"
    fill="#00FFFF">
    ACCENTS
  </text>
</svg>
